<svg width="332" height="203" viewBox="0 0 332 203" fill="none" xmlns="http://www.w3.org/2000/svg">
<path d="M92.9943 65.9473C89.6547 65.9473 86.9336 63.2227 86.9336 59.8789C86.9336 56.5351 89.6547 53.8105 92.9943 53.8105C96.3339 53.8105 99.055 56.5351 99.055 59.8789C99.055 63.2227 96.3339 65.9473 92.9943 65.9473Z" fill="#1E294B"/>
<path d="M92.9946 84.0286C90.5827 84.0286 88.6655 82.109 88.6655 79.6941C88.6655 77.2791 90.5827 75.3595 92.9946 75.3595C95.4065 75.3595 97.3237 77.2791 97.3237 79.6941C97.3237 82.109 95.3447 84.0286 92.9946 84.0286Z" fill="#1E294B"/>
<path d="M92.9945 99.9427C94.8048 99.9427 96.2722 98.4733 96.2722 96.6608C96.2722 94.8482 94.8048 93.3789 92.9945 93.3789C91.1843 93.3789 89.7168 94.8482 89.7168 96.6608C89.7168 98.4733 91.1843 99.9427 92.9945 99.9427Z" fill="#1E294B"/>
<path d="M78.894 44.4603V37.9584C78.894 30.1562 85.2021 23.8401 92.9944 23.8401C100.787 23.8401 107.095 30.1562 107.095 37.9584V44.4603H78.894Z" fill="#1E294B"/>
<path d="M92.9945 0C69.1228 0 49.7656 19.3817 49.7656 43.2837C49.7656 60.1266 59.4133 74.6784 73.39 81.7994V64.2754C67.7622 59.012 64.2371 51.5813 64.2371 43.2218C64.2371 27.3078 77.1006 14.366 93.0563 14.366C108.95 14.366 121.876 27.2458 121.876 43.2218C121.876 51.5194 118.35 59.012 112.661 64.2754V81.8614C126.699 74.6784 136.285 60.1266 136.285 43.3457C136.223 19.3817 116.866 0 92.9945 0Z" fill="#1E294B"/>
<path d="M102.024 140.006L123.855 112.513H106.909L93.0563 130.718L79.2033 112.513H62.1962L84.0271 140.006L61.8252 168.924H78.152L93.0563 150.286L107.961 168.924H124.287L102.024 140.006Z" fill="#1E294B"/>
<path d="M26.88 169.8C23.1467 169.8 20.0267 169.133 17.52 167.8C15.0133 166.467 13.0933 164.52 11.76 161.96C10.48 159.347 9.84 156.147 9.84 152.36V127.24H12.8V152.04C12.8 155.347 13.3333 158.093 14.4 160.28C15.4667 162.467 17.0667 164.12 19.2 165.24C21.3333 166.36 23.8667 166.92 26.8 166.92C29.0933 166.92 31.2267 166.493 33.2 165.64C35.2267 164.787 36.9867 163.72 38.48 162.44C39.9733 161.107 41.12 159.667 41.92 158.12C42.7733 156.573 43.2 155.107 43.2 153.72V127.24H46.08V169H43.36L43.12 158.68L43.84 158.52C43.2533 160.44 42.1333 162.28 40.48 164.04C38.8267 165.747 36.8267 167.133 34.48 168.2C32.1333 169.267 29.6 169.8 26.88 169.8Z" fill="#1E294B"/>
<path d="M155.96 169.8C151.427 169.8 147.427 168.867 143.96 167C140.493 165.133 137.747 162.573 135.72 159.32C133.747 156.013 132.76 152.253 132.76 148.04C132.76 143.88 133.747 140.173 135.72 136.92C137.747 133.613 140.493 131.053 143.96 129.24C147.48 127.373 151.533 126.44 156.12 126.44C159.853 126.44 163.32 127.107 166.52 128.44C169.72 129.72 172.493 131.48 174.84 133.72L173.08 136.04C171.747 134.707 170.2 133.56 168.44 132.6C166.68 131.587 164.707 130.787 162.52 130.2C160.387 129.613 158.093 129.32 155.64 129.32C151.853 129.32 148.44 130.147 145.4 131.8C142.413 133.4 140.067 135.613 138.36 138.44C136.707 141.213 135.853 144.413 135.8 148.04C135.853 151.72 136.733 154.973 138.44 157.8C140.2 160.627 142.547 162.867 145.48 164.52C148.467 166.12 151.8 166.92 155.48 166.92C158.093 166.92 160.467 166.653 162.6 166.12C164.733 165.533 166.653 164.787 168.36 163.88C170.067 162.92 171.56 161.853 172.84 160.68L174.6 163.08C172.307 165.053 169.587 166.68 166.44 167.96C163.347 169.187 159.853 169.8 155.96 169.8ZM212.613 169.8C208.079 169.8 204.133 168.893 200.772 167.08C197.413 165.213 194.799 162.68 192.932 159.48C191.066 156.227 190.132 152.493 190.132 148.28C190.132 144.067 191.092 140.333 193.012 137.08C194.986 133.773 197.652 131.187 201.013 129.32C204.372 127.4 208.159 126.44 212.372 126.44C215.039 126.44 217.519 126.84 219.813 127.64C222.159 128.387 224.213 129.453 225.973 130.84C227.786 132.227 229.252 133.773 230.373 135.48C231.546 137.187 232.293 138.973 232.613 140.84L231.413 140.36L231.733 127.24H234.373V169H231.573V156.28L232.693 155.08C232.319 157.107 231.519 159.027 230.293 160.84C229.119 162.6 227.626 164.173 225.813 165.56C223.999 166.893 221.973 167.933 219.733 168.68C217.493 169.427 215.119 169.8 212.613 169.8ZM212.773 166.92C216.346 166.92 219.573 166.12 222.453 164.52C225.333 162.92 227.599 160.707 229.253 157.88C230.906 155.053 231.733 151.8 231.733 148.12C231.733 144.6 230.906 141.427 229.253 138.6C227.652 135.72 225.413 133.453 222.533 131.8C219.653 130.093 216.373 129.24 212.693 129.24C208.906 129.24 205.519 130.093 202.532 131.8C199.599 133.453 197.306 135.72 195.653 138.6C193.999 141.427 193.172 144.627 193.172 148.2C193.172 151.827 193.972 155.053 195.572 157.88C197.173 160.707 199.439 162.92 202.373 164.52C205.306 166.12 208.773 166.92 212.773 166.92ZM259.502 169V109.8H262.382V169H259.502ZM305.827 169.8C301.24 169.8 297.16 168.893 293.587 167.08C290.014 165.213 287.24 162.653 285.267 159.4C283.347 156.093 282.387 152.307 282.387 148.04C282.387 144.787 282.947 141.853 284.067 139.24C285.187 136.627 286.76 134.36 288.787 132.44C290.814 130.467 293.187 128.973 295.907 127.96C298.627 126.947 301.587 126.44 304.787 126.44C307.88 126.44 310.707 126.893 313.267 127.8C315.88 128.707 318.094 130.04 319.907 131.8C321.774 133.507 323.187 135.587 324.147 138.04C325.16 140.44 325.614 143.133 325.507 146.12L325.427 148.52H284.467V145.8H323.907L322.627 146.84V144.92C322.627 142.147 321.88 139.56 320.387 137.16C318.894 134.76 316.814 132.867 314.147 131.48C311.534 130.04 308.44 129.32 304.867 129.32C301.24 129.32 297.96 130.04 295.027 131.48C292.094 132.92 289.747 135.027 287.987 137.8C286.28 140.573 285.427 143.933 285.427 147.88C285.427 151.667 286.28 154.973 287.987 157.8C289.747 160.627 292.174 162.84 295.267 164.44C298.36 166.04 302.014 166.84 306.227 166.84C309.427 166.84 312.28 166.387 314.787 165.48C317.294 164.573 319.747 163.213 322.147 161.4L323.507 163.8C321.96 164.973 320.334 166.013 318.627 166.92C316.92 167.827 315 168.52 312.867 169C310.787 169.533 308.44 169.8 305.827 169.8Z" fill="#1E294B"/>
</svg>
